<svg width="24" height="24" viewBox="0 0 24 24" fill="none" xmlns="http://www.w3.org/2000/svg">
<rect width="24" height="24" rx="4" fill="#262626"/>
<path d="M3.78649 14V9.63636H4.70907V13.2393H6.57981V14H3.78649ZM11.0308 11.8182C11.0308 12.294 10.9406 12.6989 10.7602 13.0327C10.5812 13.3665 10.3369 13.6214 10.0273 13.7976C9.71902 13.9723 9.37243 14.0597 8.98748 14.0597C8.5997 14.0597 8.25169 13.9716 7.94345 13.7955C7.63521 13.6193 7.3916 13.3643 7.21262 13.0305C7.03365 12.6967 6.94416 12.2926 6.94416 11.8182C6.94416 11.3423 7.03365 10.9375 7.21262 10.6037C7.3916 10.2699 7.63521 10.0156 7.94345 9.84091C8.25169 9.66477 8.5997 9.5767 8.98748 9.5767C9.37243 9.5767 9.71902 9.66477 10.0273 9.84091C10.3369 10.0156 10.5812 10.2699 10.7602 10.6037C10.9406 10.9375 11.0308 11.3423 11.0308 11.8182ZM10.0954 11.8182C10.0954 11.5099 10.0493 11.25 9.95694 11.0384C9.86603 10.8267 9.73748 10.6662 9.57129 10.5568C9.4051 10.4474 9.21049 10.3928 8.98748 10.3928C8.76447 10.3928 8.56987 10.4474 8.40368 10.5568C8.23748 10.6662 8.10822 10.8267 8.01589 11.0384C7.92498 11.25 7.87953 11.5099 7.87953 11.8182C7.87953 12.1264 7.92498 12.3864 8.01589 12.598C8.10822 12.8097 8.23748 12.9702 8.40368 13.0795C8.56987 13.1889 8.76447 13.2436 8.98748 13.2436C9.21049 13.2436 9.4051 13.1889 9.57129 13.0795C9.73748 12.9702 9.86603 12.8097 9.95694 12.598C10.0493 12.3864 10.0954 12.1264 10.0954 11.8182ZM14.6077 11.0469C14.5779 10.9432 14.536 10.8516 14.482 10.772C14.428 10.6911 14.3619 10.6229 14.2838 10.5675C14.2071 10.5107 14.1191 10.4673 14.0196 10.4375C13.9216 10.4077 13.8129 10.3928 13.6936 10.3928C13.4706 10.3928 13.2746 10.4482 13.1056 10.5589C12.9379 10.6697 12.8073 10.831 12.7135 11.0426C12.6198 11.2528 12.5729 11.5099 12.5729 11.8139C12.5729 12.1179 12.6191 12.3764 12.7114 12.5895C12.8037 12.8026 12.9344 12.9652 13.1034 13.0774C13.2725 13.1882 13.472 13.2436 13.7021 13.2436C13.911 13.2436 14.0892 13.2067 14.2369 13.1328C14.3861 13.0575 14.4997 12.9517 14.5779 12.8153C14.6574 12.679 14.6972 12.5178 14.6972 12.3317L14.8847 12.3594H13.7597V11.6648H15.5857V12.2145C15.5857 12.598 15.5047 12.9276 15.3428 13.2031C15.1808 13.4773 14.9578 13.6889 14.6737 13.8381C14.3896 13.9858 14.0644 14.0597 13.6979 14.0597C13.2888 14.0597 12.9294 13.9695 12.6198 13.7891C12.3101 13.6072 12.0686 13.3494 11.8953 13.0156C11.7235 12.6804 11.6375 12.2827 11.6375 11.8224C11.6375 11.4687 11.6887 11.1534 11.7909 10.8764C11.8946 10.598 12.0395 10.3622 12.2256 10.169C12.4117 9.97585 12.6283 9.82884 12.8754 9.72798C13.1226 9.62713 13.3904 9.5767 13.6787 9.5767C13.9259 9.5767 14.156 9.61293 14.3691 9.68537C14.5821 9.75639 14.771 9.85724 14.9358 9.98793C15.102 10.1186 15.2377 10.2741 15.3428 10.4545C15.4479 10.6335 15.5154 10.831 15.5452 11.0469H14.6077ZM20.2886 11.8182C20.2886 12.294 20.1984 12.6989 20.018 13.0327C19.839 13.3665 19.5947 13.6214 19.2851 13.7976C18.9768 13.9723 18.6302 14.0597 18.2453 14.0597C17.8575 14.0597 17.5095 13.9716 17.2013 13.7955C16.893 13.6193 16.6494 13.3643 16.4704 13.0305C16.2915 12.6967 16.202 12.2926 16.202 11.8182C16.202 11.3423 16.2915 10.9375 16.4704 10.6037C16.6494 10.2699 16.893 10.0156 17.2013 9.84091C17.5095 9.66477 17.8575 9.5767 18.2453 9.5767C18.6302 9.5767 18.9768 9.66477 19.2851 9.84091C19.5947 10.0156 19.839 10.2699 20.018 10.6037C20.1984 10.9375 20.2886 11.3423 20.2886 11.8182ZM19.3532 11.8182C19.3532 11.5099 19.3071 11.25 19.2148 11.0384C19.1238 10.8267 18.9953 10.6662 18.8291 10.5568C18.6629 10.4474 18.4683 10.3928 18.2453 10.3928C18.0223 10.3928 17.8277 10.4474 17.6615 10.5568C17.4953 10.6662 17.366 10.8267 17.2737 11.0384C17.1828 11.25 17.1373 11.5099 17.1373 11.8182C17.1373 12.1264 17.1828 12.3864 17.2737 12.598C17.366 12.8097 17.4953 12.9702 17.6615 13.0795C17.8277 13.1889 18.0223 13.2436 18.2453 13.2436C18.4683 13.2436 18.6629 13.1889 18.8291 13.0795C18.9953 12.9702 19.1238 12.8097 19.2148 12.598C19.3071 12.3864 19.3532 12.1264 19.3532 11.8182Z" fill="white"/>
</svg>
