<svg width="24" height="24" viewBox="0 0 24 24" fill="none" xmlns="http://www.w3.org/2000/svg">
<rect width="24" height="24" rx="4" fill="#262626"/>
<path d="M1.64848 15V8.45455H3.03236V13.859H5.83847V15H1.64848ZM8.9474 15.0959C8.45095 15.0959 8.02162 14.9904 7.6594 14.7795C7.29932 14.5664 7.02126 14.2702 6.82524 13.891C6.62922 13.5096 6.53121 13.0675 6.53121 12.5646C6.53121 12.0575 6.62922 11.6143 6.82524 11.2351C7.02126 10.8537 7.29932 10.5575 7.6594 10.3466C8.02162 10.1335 8.45095 10.027 8.9474 10.027C9.44385 10.027 9.87211 10.1335 10.2322 10.3466C10.5944 10.5575 10.8735 10.8537 11.0696 11.2351C11.2656 11.6143 11.3636 12.0575 11.3636 12.5646C11.3636 13.0675 11.2656 13.5096 11.0696 13.891C10.8735 14.2702 10.5944 14.5664 10.2322 14.7795C9.87211 14.9904 9.44385 15.0959 8.9474 15.0959ZM8.95379 14.0412C9.17964 14.0412 9.36821 13.9773 9.51949 13.8494C9.67077 13.7195 9.78476 13.5426 9.86146 13.3189C9.9403 13.0952 9.97971 12.8406 9.97971 12.555C9.97971 12.2695 9.9403 12.0149 9.86146 11.7912C9.78476 11.5675 9.67077 11.3906 9.51949 11.2607C9.36821 11.1307 9.17964 11.0657 8.95379 11.0657C8.72581 11.0657 8.53405 11.1307 8.37851 11.2607C8.2251 11.3906 8.10898 11.5675 8.03014 11.7912C7.95344 12.0149 7.91508 12.2695 7.91508 12.555C7.91508 12.8406 7.95344 13.0952 8.03014 13.3189C8.10898 13.5426 8.2251 13.7195 8.37851 13.8494C8.53405 13.9773 8.72581 14.0412 8.95379 14.0412ZM14.4605 16.9432C14.0195 16.9432 13.6413 16.8825 13.326 16.761C13.0127 16.6417 12.7634 16.4787 12.5781 16.272C12.3927 16.0653 12.2723 15.8331 12.2169 15.5753L13.4762 15.4059C13.5145 15.5039 13.5752 15.5955 13.6583 15.6808C13.7414 15.766 13.8512 15.8342 13.9875 15.8853C14.126 15.9386 14.2943 15.9652 14.4925 15.9652C14.7887 15.9652 15.0326 15.8928 15.2244 15.7479C15.4183 15.6051 15.5152 15.3654 15.5152 15.0288V14.1307H15.4577C15.398 14.267 15.3085 14.396 15.1892 14.5174C15.0699 14.6388 14.9165 14.7379 14.729 14.8146C14.5415 14.8913 14.3178 14.9297 14.0578 14.9297C13.6892 14.9297 13.3536 14.8445 13.0511 14.674C12.7507 14.5014 12.511 14.2383 12.332 13.8846C12.1551 13.5288 12.0667 13.0792 12.0667 12.5359C12.0667 11.9798 12.1573 11.5153 12.3384 11.1424C12.5195 10.7695 12.7603 10.4904 13.0607 10.305C13.3632 10.1197 13.6946 10.027 14.0546 10.027C14.3295 10.027 14.5596 10.0739 14.745 10.1676C14.9304 10.2592 15.0795 10.3743 15.1924 10.5128C15.3075 10.6491 15.3959 10.7834 15.4577 10.9155H15.5088V10.0909H16.8608V15.0479C16.8608 15.4656 16.7585 15.815 16.5539 16.0962C16.3494 16.3775 16.066 16.5884 15.7038 16.729C15.3437 16.8718 14.9293 16.9432 14.4605 16.9432ZM14.4893 13.907C14.7088 13.907 14.8941 13.8526 15.0454 13.744C15.1988 13.6332 15.316 13.4755 15.397 13.271C15.4801 13.0643 15.5216 12.8171 15.5216 12.5295C15.5216 12.2418 15.4811 11.9925 15.4002 11.7816C15.3192 11.5685 15.202 11.4034 15.0486 11.2862C14.8952 11.169 14.7088 11.1104 14.4893 11.1104C14.2656 11.1104 14.077 11.1712 13.9236 11.2926C13.7702 11.4119 13.6541 11.5781 13.5752 11.7912C13.4964 12.0043 13.457 12.2504 13.457 12.5295C13.457 12.8129 13.4964 13.0579 13.5752 13.2646C13.6562 13.4691 13.7723 13.6278 13.9236 13.7408C14.077 13.8516 14.2656 13.907 14.4893 13.907ZM20.1622 15.0959C19.6658 15.0959 19.2365 14.9904 18.8742 14.7795C18.5142 14.5664 18.2361 14.2702 18.0401 13.891C17.8441 13.5096 17.746 13.0675 17.746 12.5646C17.746 12.0575 17.8441 11.6143 18.0401 11.2351C18.2361 10.8537 18.5142 10.5575 18.8742 10.3466C19.2365 10.1335 19.6658 10.027 20.1622 10.027C20.6587 10.027 21.087 10.1335 21.447 10.3466C21.8093 10.5575 22.0884 10.8537 22.2844 11.2351C22.4804 11.6143 22.5784 12.0575 22.5784 12.5646C22.5784 13.0675 22.4804 13.5096 22.2844 13.891C22.0884 14.2702 21.8093 14.5664 21.447 14.7795C21.087 14.9904 20.6587 15.0959 20.1622 15.0959ZM20.1686 14.0412C20.3945 14.0412 20.5831 13.9773 20.7343 13.8494C20.8856 13.7195 20.9996 13.5426 21.0763 13.3189C21.1551 13.0952 21.1946 12.8406 21.1946 12.555C21.1946 12.2695 21.1551 12.0149 21.0763 11.7912C20.9996 11.5675 20.8856 11.3906 20.7343 11.2607C20.5831 11.1307 20.3945 11.0657 20.1686 11.0657C19.9407 11.0657 19.7489 11.1307 19.5934 11.2607C19.4399 11.3906 19.3238 11.5675 19.245 11.7912C19.1683 12.0149 19.1299 12.2695 19.1299 12.555C19.1299 12.8406 19.1683 13.0952 19.245 13.3189C19.3238 13.5426 19.4399 13.7195 19.5934 13.8494C19.7489 13.9773 19.9407 14.0412 20.1686 14.0412Z" fill="white"/>
</svg>
